<svg width="200" height="200" viewBox="0 0 200 200" fill="none" xmlns="http://www.w3.org/2000/svg">
<path d="M57.2253 129.088C56.5212 129.088 55.7532 128.896 54.9212 128.512C54.1532 128.064 53.3212 127.584 52.4252 127.072L21.2252 108.736C20.4572 108.224 19.8812 107.584 19.4972 106.816C19.1132 105.984 18.9212 105.152 18.9212 104.32C18.9212 103.424 19.1132 102.592 19.4972 101.824C19.8812 100.992 20.4572 100.352 21.2252 99.904L52.4252 81.952C53.2572 81.44 54.0253 81.056 54.7293 80.8C55.4973 80.48 56.2013 80.32 56.8412 80.32C58.1213 80.32 59.3053 80.96 60.3932 82.24C61.5452 83.456 62.1213 84.736 62.1213 86.08C62.1213 86.72 61.9292 87.36 61.5452 88C61.2252 88.576 60.7132 89.088 60.0092 89.536L26.6972 108.832L26.0252 99.232L59.9132 119.488C60.6812 119.936 61.2252 120.512 61.5452 121.216C61.8653 121.856 62.0253 122.528 62.0253 123.232C62.0253 124.768 61.4813 126.144 60.3932 127.36C59.3692 128.512 58.3132 129.088 57.2253 129.088ZM80.7828 148.864C79.6948 148.864 78.5748 148.416 77.4228 147.52C76.2708 146.624 75.6948 145.472 75.6948 144.064C75.6948 143.296 75.8868 142.528 76.2708 141.76L115.247 61.984C115.695 61.088 116.303 60.384 117.071 59.872C117.839 59.36 118.639 59.104 119.471 59.104C120.559 59.104 121.647 59.552 122.735 60.448C123.887 61.28 124.463 62.432 124.463 63.904C124.463 64.672 124.271 65.44 123.887 66.208L85.0068 145.984C84.5588 146.88 83.9508 147.584 83.1828 148.096C82.4788 148.608 81.6788 148.864 80.7828 148.864ZM143.121 127.936C141.841 127.936 140.625 127.328 139.473 126.112C138.385 124.832 137.841 123.52 137.841 122.176C137.841 121.472 138.001 120.832 138.321 120.256C138.705 119.68 139.249 119.168 139.953 118.72L173.265 99.424L173.937 109.024L140.049 88.768C139.281 88.32 138.737 87.776 138.417 87.136C138.097 86.432 137.937 85.728 137.937 85.024C137.937 83.488 138.481 82.144 139.569 80.992C140.657 79.776 141.713 79.168 142.737 79.168C143.441 79.168 144.177 79.392 144.945 79.84C145.777 80.224 146.641 80.672 147.537 81.184L178.737 99.52C179.505 99.968 180.081 100.608 180.465 101.44C180.849 102.208 181.041 103.04 181.041 103.936C181.041 104.832 180.849 105.696 180.465 106.528C180.081 107.296 179.505 107.904 178.737 108.352L147.537 126.304C146.705 126.752 145.937 127.136 145.233 127.456C144.529 127.776 143.825 127.936 143.121 127.936Z" fill="black"/>
</svg>
