<svg fill="none" height="100%" width="100%" viewBox="0 0 1080 1080" xmlns:xlink="http://www.w3.org/1999/xlink" xmlns="http://www.w3.org/2000/svg"><defs><linearGradient id="i0" gradientUnits="userSpaceOnUse" spreadMethod="pad" x2="1.017" y2="29.301" x1="1.343" y1="-28.183"><stop offset="0%" stop-color="#ff0000" /><stop offset="64.697%" stop-color="#da0b0b" /><stop offset="82.165%" stop-color="#000000" /></linearGradient><filter id="i1"><feColorMatrix values="0 0 0 0 1 0 0 0 0 1 0 0 0 0 1 0 0 0 1 0" type="matrix" /></filter><mask height="20000" width="20000" y="-10000" x="-10000" maskContentUnits="userSpaceOnUse" maskUnits="userSpaceOnUse" style="mask-type: alpha" mask-type="alpha" id="i2"><g filter="url(#i1)" transform="matrix(0.687,0,0,0.684,537.419,595.513)"><g id="i3" transform="matrix(1,0,0,1,-8.25,132.25)"><rect height="104.5" width="479.5" y="-52.25" x="-239.75" fill="#10ff59" /></g></g></mask><filter id="i4"><feColorMatrix values="0 0 0 0 1 0 0 0 0 1 0 0 0 0 1 0 0 0 1 0" type="matrix" /></filter><mask height="20000" width="20000" y="-10000" x="-10000" maskContentUnits="userSpaceOnUse" maskUnits="userSpaceOnUse" style="mask-type: alpha" mask-type="alpha" id="i5"><g filter="url(#i4)" transform="matrix(0.687,0,0,0.684,537.419,595.513)"><g id="i3" transform="matrix(1,0,0,1,-8.25,132.25)"><rect height="104.5" width="479.5" y="-52.25" x="-239.75" fill="#10ff59" /></g></g></mask><filter id="i6"><feColorMatrix values="0 0 0 0 1 0 0 0 0 1 0 0 0 0 1 0 0 0 1 0" type="matrix" /></filter><mask height="20000" width="20000" y="-10000" x="-10000" maskContentUnits="userSpaceOnUse" maskUnits="userSpaceOnUse" style="mask-type: alpha" mask-type="alpha" id="i7"><g filter="url(#i6)" transform="matrix(0.687,0,0,0.684,537.419,595.513)"><g id="i3" transform="matrix(1,0,0,1,-8.25,132.25)"><rect height="104.5" width="479.5" y="-52.25" x="-239.75" fill="#10ff59" /></g></g></mask><filter id="i8"><feColorMatrix values="0 0 0 0 1 0 0 0 0 1 0 0 0 0 1 0 0 0 1 0" type="matrix" /></filter><mask height="20000" width="20000" y="-10000" x="-10000" maskContentUnits="userSpaceOnUse" maskUnits="userSpaceOnUse" style="mask-type: alpha" mask-type="alpha" id="i9"><g filter="url(#i8)" transform="matrix(0.687,0,0,0.684,537.419,595.513)"><g id="i3" transform="matrix(1,0,0,1,-8.25,132.25)"><rect height="104.5" width="479.5" y="-52.25" x="-239.75" fill="#10ff59" /></g></g></mask></defs><g transform="matrix(6,0,0,6,348,342)" id="i10"><g id="i11" transform="matrix(1,0,0,1,0,0)"><g id="i12" transform="matrix(1,0,0,1,51,59)"><path stroke-linejoin="round" stroke-linecap="round" stroke-width="1" stroke="#ffffff" d="M-8,-6.5C-8,-6.5,8,6.5,8,6.5" /></g><g id="i13" transform="matrix(1,0,0,1,13,59)"><path stroke-linejoin="round" stroke-linecap="round" stroke-width="1" stroke="#ffffff" d="M-8,6.5C-8,6.5,8,-6.5,8,-6.5" /></g></g><g id="i14" transform="matrix(1,0,0,1,0,0)"><g id="i15"><path stroke-linejoin="round" stroke-linecap="round" stroke-width="1" stroke="#ffffff" d="M40.875,4.5C40.875,4.5,24.875,4.5,24.875,4.5" /></g><g id="i16"><path stroke-linejoin="round" stroke-linecap="round" stroke-width="1" stroke="#ffffff" d="M40.875,2.5C40.875,2.5,24.875,2.5,24.875,2.5" /></g></g></g><g mask="url(#i2)" visibility="visible" id="i17"><animate repeatCount="indefinite" begin="0s" calcMode="discrete" dur="5s" values="visible; hidden; hidden" keyTimes="0; 0.5; 1" attributeName="visibility" /><g transform="translate(540,546)"><animateTransform repeatCount="indefinite" type="translate" attributeName="transform" dur="5s" begin="0s" calcMode="spline" values="540 546; 540 457; 540 457" keyTimes="0; 0.5; 1" keySplines="0 0 1 1; 0 0 1 1" fill="freeze" /><g transform="scale(6,6) translate(-32,-34)"><g id="i18" transform="matrix(1,0,0,1,0,0)"><g id="i19"><path d="M12,62.5C12,62.5,52,62.5,52,62.5" stroke-linejoin="round" stroke-linecap="round" stroke-width="1" stroke="#ffffff"><animate repeatCount="indefinite" attributeName="d" dur="5s" begin="0s" calcMode="spline" values="M12,62.5C12,62.5,52,62.5,52,62.5; M18.875,62.512C18.875,62.512,45.042,62.512,45.042,62.512; M26.542,62.51C26.542,62.51,37.542,62.51,37.542,62.51; M26.542,62.51C26.542,62.51,37.542,62.51,37.542,62.51" keyTimes="0; 0.186667; 0.333333; 1" keySplines="0 0 1 1; 0 0 1 1; 0 0 1 1" fill="freeze" /></path></g><g id="i20"><path d="M19,57C19,57,45,57,45,57" stroke-linejoin="round" stroke-linecap="round" stroke-width="1" stroke="#ffffff"><animate repeatCount="indefinite" attributeName="d" dur="5s" begin="0s" calcMode="spline" values="M19,57C19,57,45,57,45,57; M26.542,56.978C26.542,56.978,37.5,56.993,37.5,56.993; M26.542,56.978C26.542,56.978,37.5,56.993,37.5,56.993" keyTimes="0; 0.153333; 1" keySplines="0 0 1 1; 0 0 1 1" fill="freeze" /></path></g><g id="i21"><path stroke-linejoin="round" stroke-linecap="round" stroke-width="1" stroke="#ffffff" d="M37.5,52.5C37.5,52.5,32.708,52.5,32.708,52.5C32.708,52.5,26.5,52.5,26.5,52.5" /></g></g></g></g></g><g display="none" transform="matrix(0.687,0,0,0.684,537.419,595.513)" visibility="visible" id="i22"><animate repeatCount="indefinite" begin="0s" calcMode="discrete" dur="5s" values="visible; hidden; hidden" keyTimes="0; 0.5; 1" attributeName="visibility" /><g id="i3" transform="matrix(1,0,0,1,-8.25,132.25)"><rect height="104.5" width="479.5" y="-52.25" x="-239.75" fill="#10ff59" /></g></g><g mask="url(#i5)" id="i17"><g transform="translate(540,546)"><animateTransform repeatCount="indefinite" type="translate" attributeName="transform" dur="5s" begin="0s" calcMode="spline" values="540 546; 540 457; 540 457" keyTimes="0; 0.5; 1" keySplines="0 0 1 1; 0 0 1 1" fill="freeze" /><g transform="scale(6,6) translate(-32,-34)"><g transform="matrix(1,0,0,1,0,14.927)" visibility="visible" id="i23"><animate repeatCount="indefinite" begin="0s" calcMode="discrete" dur="5s" values="visible; hidden; hidden" keyTimes="0; 0.5; 1" attributeName="visibility" /><g id="i18" transform="matrix(1,0,0,1,0,0)"><g id="i19"><path stroke-linejoin="round" stroke-linecap="round" stroke-width="1" stroke="#ffffff" d="M12,62.5C12,62.5,52,62.5,52,62.5" /></g><g id="i20"><path d="M11.833,56.967C11.833,56.967,52,56.967,52,56.967" stroke-linejoin="round" stroke-linecap="round" stroke-width="1" stroke="#ffffff"><animate repeatCount="indefinite" attributeName="d" dur="5s" begin="0s" calcMode="spline" values="M11.833,56.967C11.833,56.967,52,56.967,52,56.967; M11.833,56.967C11.833,56.967,52,56.967,52,56.967; M18.99,56.962C18.99,56.962,45.055,56.962,45.055,56.962; M19,57C19,57,45,57,45,57" keyTimes="0; 0.313333; 0.5; 1" keySplines="0 0 1 1; 0 0 1 1; 0 0 1 1" fill="freeze" /></path></g><g id="i21"><path d="M52,52.482C52,52.482,32.708,52.5,32.708,52.5C32.708,52.5,12,52.482,12,52.482" stroke-linejoin="round" stroke-linecap="round" stroke-width="1" stroke="#ffffff"><animate repeatCount="indefinite" attributeName="d" dur="5s" begin="0s" calcMode="spline" values="M52,52.482C52,52.482,32.708,52.5,32.708,52.5C32.708,52.5,12,52.482,12,52.482; M52,52.482C52,52.482,32.708,52.5,32.708,52.5C32.708,52.5,12,52.482,12,52.482; M45.085,52.501C45.085,52.501,32.708,52.5,32.708,52.5C32.708,52.5,18.915,52.501,18.915,52.501; M37.375,52.511C37.375,52.511,32.708,52.5,32.708,52.5C32.708,52.5,26.458,52.511,26.458,52.511; M37.5,52.5C37.5,52.5,32.708,52.5,32.708,52.5C32.708,52.5,26.5,52.5,26.5,52.5" keyTimes="0; 0.166667; 0.353333; 0.513333; 1" keySplines="0 0 1 1; 0 0 1 1; 0 0 1 1; 0 0 1 1" fill="freeze" /></path></g></g></g></g></g></g><g display="none" transform="matrix(0.687,0,0,0.684,537.419,595.513)" visibility="visible" id="i24"><animate repeatCount="indefinite" begin="0s" calcMode="discrete" dur="5s" values="visible; hidden; hidden" keyTimes="0; 0.5; 1" attributeName="visibility" /><g id="i3" transform="matrix(1,0,0,1,-8.25,132.25)"><rect height="104.5" width="479.5" y="-52.25" x="-239.75" fill="#10ff59" /></g></g><g mask="url(#i7)" visibility="hidden" id="i25"><animate repeatCount="indefinite" begin="0s" calcMode="discrete" dur="5s" values="hidden; visible; visible" keyTimes="0; 0.5; 1" attributeName="visibility" /><g transform="translate(540,546)"><animateTransform repeatCount="indefinite" type="translate" attributeName="transform" dur="5s" begin="0s" calcMode="spline" values="540 546; 540 546; 540 457" keyTimes="0; 0.5; 1" keySplines="0 0 1 1; 0 0 1 1" fill="freeze" /><g transform="scale(6,6) translate(-32,-34)"><g id="i18" transform="matrix(1,0,0,1,0,0)"><g id="i19"><path d="M12,62.5C12,62.5,52,62.5,52,62.5" stroke-linejoin="round" stroke-linecap="round" stroke-width="1" stroke="#ffffff"><animate repeatCount="indefinite" attributeName="d" dur="5s" begin="0s" calcMode="spline" values="M12,62.5C12,62.5,52,62.5,52,62.5; M12,62.5C12,62.5,52,62.5,52,62.5; M18.875,62.512C18.875,62.512,45.042,62.512,45.042,62.512; M26.542,62.51C26.542,62.51,37.542,62.51,37.542,62.51; M26.542,62.51C26.542,62.51,37.542,62.51,37.542,62.51" keyTimes="0; 0.5; 0.686667; 0.833333; 1" keySplines="0 0 1 1; 0 0 1 1; 0 0 1 1; 0 0 1 1" fill="freeze" /></path></g><g id="i20"><path d="M19,57C19,57,45,57,45,57" stroke-linejoin="round" stroke-linecap="round" stroke-width="1" stroke="#ffffff"><animate repeatCount="indefinite" attributeName="d" dur="5s" begin="0s" calcMode="spline" values="M19,57C19,57,45,57,45,57; M19,57C19,57,45,57,45,57; M26.542,56.978C26.542,56.978,37.5,56.993,37.5,56.993; M26.542,56.978C26.542,56.978,37.5,56.993,37.5,56.993" keyTimes="0; 0.5; 0.653333; 1" keySplines="0 0 1 1; 0 0 1 1; 0 0 1 1" fill="freeze" /></path></g><g id="i21"><path stroke-linejoin="round" stroke-linecap="round" stroke-width="1" stroke="#ffffff" d="M37.5,52.5C37.5,52.5,32.708,52.5,32.708,52.5C32.708,52.5,26.5,52.5,26.5,52.5" /></g></g></g></g></g><g display="none" transform="matrix(0.687,0,0,0.684,537.419,595.513)" visibility="hidden" id="i26"><animate repeatCount="indefinite" begin="0s" calcMode="discrete" dur="5s" values="hidden; visible; visible" keyTimes="0; 0.5; 1" attributeName="visibility" /><g id="i3" transform="matrix(1,0,0,1,-8.25,132.25)"><rect height="104.5" width="479.5" y="-52.25" x="-239.75" fill="#10ff59" /></g></g><g mask="url(#i9)" id="i25"><g transform="translate(540,546)"><animateTransform repeatCount="indefinite" type="translate" attributeName="transform" dur="5s" begin="0s" calcMode="spline" values="540 546; 540 546; 540 457" keyTimes="0; 0.5; 1" keySplines="0 0 1 1; 0 0 1 1" fill="freeze" /><g transform="scale(6,6) translate(-32,-34)"><g transform="matrix(1,0,0,1,0,14.927)" visibility="hidden" id="i27"><animate repeatCount="indefinite" begin="0s" calcMode="discrete" dur="5s" values="hidden; visible; visible" keyTimes="0; 0.5; 1" attributeName="visibility" /><g id="i18" transform="matrix(1,0,0,1,0,0)"><g id="i19"><path stroke-linejoin="round" stroke-linecap="round" stroke-width="1" stroke="#ffffff" d="M12,62.5C12,62.5,52,62.5,52,62.5" /></g><g id="i20"><path d="M11.833,56.967C11.833,56.967,52,56.967,52,56.967" stroke-linejoin="round" stroke-linecap="round" stroke-width="1" stroke="#ffffff"><animate repeatCount="indefinite" attributeName="d" dur="5s" begin="0s" calcMode="spline" values="M11.833,56.967C11.833,56.967,52,56.967,52,56.967; M11.833,56.967C11.833,56.967,52,56.967,52,56.967; M18.99,56.962C18.99,56.962,45.055,56.962,45.055,56.962; M19,57C19,57,45,57,45,57" keyTimes="0; 0.813333; 1; 1" keySplines="0 0 1 1; 0 0 1 1; 0 0 1 1" fill="freeze" /></path></g><g id="i21"><path d="M52,52.482C52,52.482,32.708,52.5,32.708,52.5C32.708,52.5,12,52.482,12,52.482" stroke-linejoin="round" stroke-linecap="round" stroke-width="1" stroke="#ffffff"><animate repeatCount="indefinite" attributeName="d" dur="5s" begin="0s" calcMode="spline" values="M52,52.482C52,52.482,32.708,52.5,32.708,52.5C32.708,52.5,12,52.482,12,52.482; M52,52.482C52,52.482,32.708,52.5,32.708,52.5C32.708,52.5,12,52.482,12,52.482; M45.085,52.501C45.085,52.501,32.708,52.5,32.708,52.5C32.708,52.5,18.915,52.501,18.915,52.501; M37.375,52.511C37.375,52.511,32.708,52.5,32.708,52.5C32.708,52.5,26.458,52.511,26.458,52.511; M37.5,52.5C37.5,52.5,32.708,52.5,32.708,52.5C32.708,52.5,26.5,52.5,26.5,52.5" keyTimes="0; 0.666667; 0.853333; 1; 1" keySplines="0 0 1 1; 0 0 1 1; 0 0 1 1; 0 0 1 1" fill="freeze" /></path></g></g></g></g></g></g><g display="none" transform="matrix(0.687,0,0,0.684,537.419,595.513)" visibility="hidden" id="i28"><animate repeatCount="indefinite" begin="0s" calcMode="discrete" dur="5s" values="hidden; visible; visible" keyTimes="0; 0.5; 1" attributeName="visibility" /><g id="i3" transform="matrix(1,0,0,1,-8.25,132.25)"><rect height="104.5" width="479.5" y="-52.25" x="-239.75" fill="#10ff59" /></g></g><g transform="matrix(6,0,0,6,348,342)" id="i29"><g id="i30" transform="matrix(1,0,0,1,0,0)"><g id="i31"><path stroke-linejoin="round" stroke-linecap="round" stroke-width="1" stroke="#ffffff" d="M14,50C14,50,6,50,6,50" /></g><g id="i32" transform="matrix(1,0,0,1,0,0)"><g id="i33"><path stroke-linejoin="round" stroke-linecap="round" stroke-width="1" stroke="#ffffff" d="M1.5,52C1.5,52,0.5,52,0.5,52" /></g><g id="i34"><path stroke-linejoin="round" stroke-linecap="round" stroke-width="1" stroke="#ffffff" d="M10,52C10,52,3.5,52,3.5,52" /></g></g></g><g id="i35" transform="matrix(1,0,0,1,0,0)"><g id="i36"><path stroke-linejoin="round" stroke-linecap="round" stroke-width="1" stroke="#ffffff" d="M50,50C50,50,58,50,58,50" /></g><g id="i34" transform="matrix(1,0,0,1,0,0)"><g id="i37"><path stroke-linejoin="round" stroke-linecap="round" stroke-width="1" stroke="#ffffff" d="M62.5,52C62.5,52,63.5,52,63.5,52" /></g><g id="i38"><path stroke-linejoin="round" stroke-linecap="round" stroke-width="1" stroke="#ffffff" d="M54,52C54,52,60.5,52,60.5,52" /></g></g></g></g><g id="i39"><g transform="translate(540,657)"><g transform="scale(6,6)"><animateTransform repeatCount="indefinite" type="scale" attributeName="transform" dur="5s" begin="0s" calcMode="spline" values="6 6; 6 5.9; 6 6; 6 5.9; 6 6; 6 5.9; 6 6; 6 5.9; 6 6; 6 5.9; 6 6; 6 5.9; 6 6; 6 5.9; 6 6; 6 5.9; 6 6; 6 5.9; 6 6; 6 5.9; 6 6" keyTimes="0; 0.05; 0.1; 0.15; 0.2; 0.25; 0.3; 0.35; 0.4; 0.45; 0.5; 0.55; 0.6; 0.65; 0.7; 0.75; 0.8; 0.85; 0.9; 0.95; 1" keySplines="0.333 0 0.667 1; 0.333 0 0.667 1; 0.333 0 0.667 1; 0.333 0 0.667 1; 0.333 0 0.667 1; 0.333 0 0.667 1; 0.333 0 0.667 1; 0.333 0 0.667 1; 0.333 0 0.667 1; 0.333 0 0.667 1; 0.333 0 0.667 1; 0.333 0 0.667 1; 0.333 0 0.667 1; 0.333 0 0.667 1; 0.333 0 0.667 1; 0.333 0 0.667 1; 0.333 0 0.667 1; 0.333 0 0.667 1; 0.333 0 0.667 1; 0.333 0 0.667 1" fill="freeze" /><g transform="translate(-32,-52.5)"><g id="i39" transform="matrix(1,0,0,1,0,0)"><g id="i40" transform="matrix(1,0,0,1,32,30.5)"><path fill="url(#i0)" stroke-linejoin="round" stroke-linecap="round" stroke-width="1" stroke="#ffffff" d="M12,18C12,18,-12,18,-12,18C-15.313,18,-18,15.314,-18,12C-18,12,-18,-12,-18,-12C-18,-15.313,-15.313,-18,-12,-18C-12,-18,12,-18,12,-18C15.314,-18,18,-15.313,18,-12C18,-12,18,12,18,12C18,15.314,15.314,18,12,18Z" /></g><g id="i41" transform="matrix(1,0,0,1,32,24)"><path stroke-linejoin="round" stroke-linecap="round" stroke-width="1" stroke="#ffffff" fill="#000000" d="M12,8C12,8,-12,8,-12,8C-13.104,8,-14,7.104,-14,6C-14,6,-14,-6,-14,-6C-14,-7.104,-13.104,-8,-12,-8C-12,-8,12,-8,12,-8C13.104,-8,14,-7.104,14,-6C14,-6,14,6,14,6C14,7.104,13.104,8,12,8Z" /></g><g id="i42" transform="matrix(1,0,0,1,20,39.412)"><path stroke-linejoin="round" stroke-linecap="round" stroke-width="1" stroke="#ffffff" fill="#ffd740" d="M3,0C3,1.657,1.657,3,0,3C-1.657,3,-3,1.657,-3,0C-3,-1.657,-1.657,-3,0,-3C1.657,-3,3,-1.657,3,0Z" /></g><g id="i43" transform="matrix(1,0,0,1,44,39.412)"><path stroke-linejoin="round" stroke-linecap="round" stroke-width="1" stroke="#ffffff" fill="#ffd740" d="M3,0C3,1.657,1.657,3,0,3C-1.657,3,-3,1.657,-3,0C-3,-1.657,-1.657,-3,0,-3C1.657,-3,3,-1.657,3,0Z" /></g><g id="i44"><path stroke-linejoin="round" stroke-linecap="round" stroke-width="1" stroke="#ffffff" d="M32.875,6.5C32.875,6.5,32.875,9.5,32.875,9.5" /></g><g id="i45" transform="matrix(1,0,0,1,32.875,11)"><path stroke-linejoin="round" stroke-linecap="round" stroke-width="1" stroke="#ffffff" d="M0,-1.5C-1.657,-1.5,-3,-0.157,-3,1.5C-3,1.5,3,1.5,3,1.5C3,-0.157,1.657,-1.5,0,-1.5Z" /></g><g id="i46"><path stroke-linejoin="round" stroke-linecap="round" stroke-width="1" stroke="#ffffff" d="M43,19C43,19,43,29,43,29" /></g><g id="i18" transform="matrix(1,0,0,1,32,50.5)"><path stroke-linejoin="round" stroke-linecap="round" stroke-width="1" stroke="#ffffff" d="M-7.5,2C-7.5,2,-7.5,0,-7.5,0C-7.5,0,7.5,0,7.5,0C7.5,0,7.5,2,7.5,2C7.5,2,11,2,11,2C11,2,13,-2,13,-2C13,-2,-13,-2,-13,-2C-13,-2,-11,2,-11,2C-11,2,-7.5,2,-7.5,2Z" /></g></g></g></g></g></g><g id="i47"><g transform="translate(675,393)"><animateTransform repeatCount="indefinite" type="translate" attributeName="transform" dur="5s" begin="0s" calcMode="spline" values="675 393; 675 374; 675 393; 675 374; 675 393" keyTimes="0; 0.25; 0.5; 0.75; 1" keySplines="0.333 0 0.667 1; 0.333 0 0.667 1; 0.333 0 0.667 1; 0.333 0 0.667 1" fill="freeze" /><g transform="scale(6,6)"><animateTransform repeatCount="indefinite" type="scale" attributeName="transform" dur="5s" begin="0s" calcMode="spline" values="6 6; 5 5; 6 6; 5 5; 6 6" keyTimes="0; 0.25; 0.5; 0.75; 1" keySplines="0.333 0 0.667 1; 0.333 0 0.667 1; 0.333 0 0.667 1; 0.333 0 0.667 1" fill="freeze" /><g transform="translate(-54.5,-8.5)"><g id="i47" transform="matrix(1,0,0,1,54.5,8.5)"><path stroke-linejoin="round" stroke-linecap="round" stroke-width="1" stroke="#ffffff" d="M-2.5,6C-2.5,6,-0.5,0,-0.5,0C-0.5,0,-3.5,0,-3.5,0C-3.5,0,2.5,-6,2.5,-6C2.5,-6,0.5,0,0.5,0C0.5,0,3.5,0,3.5,0C3.5,0,-2.5,6,-2.5,6Z" /></g></g></g></g></g><g transform="matrix(6,0,0,6,348,342)" id="i48"><g><g id="i48" transform="translate(4.5,35.412)"><animateTransform repeatCount="indefinite" type="translate" attributeName="transform" dur="5s" begin="0s" calcMode="spline" values="4.5 35.412; -0.5 35.412; 4.5 35.412; -0.5 35.412; 4.5 35.412" keyTimes="0; 0.25; 0.5; 0.75; 1" keySplines="0.333 0 0.667 1; 0.333 0 0.667 1; 0.333 0 0.667 1; 0.333 0 0.667 1" fill="freeze" /><path fill="#ffffff" d="M2,-1C2,-2.104,1.104,-3,0,-3C-1.104,-3,-2,-2.104,-2,-1C-3.104,-1,-4,-0.104,-4,1C-4,2.104,-3.104,3,-2,3C-2,3,2,3,2,3C3.104,3,4,2.104,4,1C4,-0.104,3.104,-1,2,-1Z" /></g></g><g><g id="i48" transform="translate(58,18)"><animateTransform repeatCount="indefinite" type="translate" attributeName="transform" dur="5s" begin="0s" calcMode="spline" values="58 18; 63 18; 58 18; 63 18; 58 18" keyTimes="0; 0.25; 0.5; 0.75; 1" keySplines="0.333 0 0.667 1; 0.333 0 0.667 1; 0.333 0 0.667 1; 0.333 0 0.667 1" fill="freeze" /><path fill="#ffffff" d="M2,-1C2,-2.104,1.104,-3,0,-3C-1.104,-3,-2,-2.104,-2,-1C-3.104,-1,-4,-0.104,-4,1C-4,2.104,-3.104,3,-2,3C-2,3,2,3,2,3C3.104,3,4,2.104,4,1C4,-0.104,3.104,-1,2,-1Z" /></g></g></g></svg>