<!-- <svg width="500" height="500" viewBox="0 0 500 500" fill="#00ff00" xmlns="http://www.w3.org/2000/svg">
    <path d="M15 50C25 30 60 15 100 20C130 10 170 20 210 12C270 5 320 18 380 10C430 5 470 25 485 50L475 120L490 180L480 260L492 340L475 430C460 470 420 490 370 485C330 495 270 485 220 490C160 495 110 480 70 488C35 480 15 460 10 420L20 340L10 260L20 180L8 100Z" />
</svg> -->

<svg xmlns='http://www.w3.org/2000/svg' viewBox='0 0 1200 120' preserveAspectRatio='none'>
<path d='M0,0 L1200,0 L1200,80 L1170,85 L1140,75 L1110,90 L1080,80 L1050,85 L1020,70 L990,85 L960,75 L930,95 L900,80 L870,85 L840,75 L810,90 L780,75 L750,85 L720,70 L690,90 L660,80 L630,85 L600,75 L570,95 L540,80 L510,85 L480,70 L450,90 L420,75 L390,85 L360,75 L330,95 L300,80 L270,85 L240,70 L210,90 L180,75 L150,85 L120,75 L90,95 L60,80 L30,85 L0,70 Z' fill='white'/>
</svg>